# xmcd
#
# Track frame offsets: 
#        150
#        14520
#        31692
#        62825
#
# Disc length: 1178 seconds
#
# Revision: 1
# Processed by: cddbd v1.5.2PL0 Copyright (c) Steve Scherf et al.
# Submitted via: ExactAudioCopyFreeDBPlugin 1.0
#
DISCID=29049804
DTITLE=村松健 - せつないなら空をごらん
DYEAR=2000
DGENRE=Easy Listening
TTITLE0=せつないなら空をごらん
TTITLE1=木の葉の旅
TTITLE2=とおり雨
TTITLE3=Nora Lee (Love Me Tender)
EXTD=YEAR: 2000
EXTT0=
EXTT1=
EXTT2=
EXTT3=
PLAYORDER=
